<?xml version="1.0" encoding="UTF-8" standalone="no"?>
<!-- Created with Inkscape (http://www.inkscape.org/) -->

<svg
   width="145.74864mm"
   height="65.646454mm"
   viewBox="0 0 145.749 65.646615"
   version="1.1"
   id="svg866"
   inkscape:export-filename="julia-ciencia.png"
   inkscape:export-xdpi="76.331413"
   inkscape:export-ydpi="76.331413"
   inkscape:version="1.4 (e7c3feb100, 2024-10-09)"
   sodipodi:docname="ciencia-julia.svg"
   xmlns:inkscape="http://www.inkscape.org/namespaces/inkscape"
   xmlns:sodipodi="http://sodipodi.sourceforge.net/DTD/sodipodi-0.dtd"
   xmlns="http://www.w3.org/2000/svg"
   xmlns:svg="http://www.w3.org/2000/svg">
  <sodipodi:namedview
     id="namedview868"
     pagecolor="#505050"
     bordercolor="#ffffff"
     borderopacity="1"
     inkscape:showpageshadow="0"
     inkscape:pageopacity="0"
     inkscape:pagecheckerboard="1"
     inkscape:deskcolor="#505050"
     inkscape:document-units="mm"
     showgrid="false"
     inkscape:zoom="0.914906"
     inkscape:cx="217.50868"
     inkscape:cy="-40.987817"
     inkscape:window-width="1920"
     inkscape:window-height="1008"
     inkscape:window-x="0"
     inkscape:window-y="0"
     inkscape:window-maximized="1"
     inkscape:current-layer="layer1" />
  <defs
     id="defs863">
    <linearGradient
       x1="0"
       y1="0"
       x2="1"
       y2="0"
       gradientUnits="userSpaceOnUse"
       gradientTransform="matrix(156.70082,0,0,-156.70082,59.899967,230.02904)"
       spreadMethod="pad"
       id="linearGradient58">
      <stop
         style="stop-opacity:1;stop-color:#ffd000"
         offset="0"
         id="stop48" />
      <stop
         style="stop-opacity:1;stop-color:#ffd000"
         offset="0.08496236"
         id="stop50" />
      <stop
         style="stop-opacity:1;stop-color:#b1d007"
         offset="0.5"
         id="stop52" />
      <stop
         style="stop-opacity:1;stop-color:#1ba0de"
         offset="0.79275547"
         id="stop54" />
      <stop
         style="stop-opacity:1;stop-color:#1ba0de"
         offset="1"
         id="stop56" />
    </linearGradient>
    <linearGradient
       x1="0"
       y1="0"
       x2="1"
       y2="0"
       gradientUnits="userSpaceOnUse"
       gradientTransform="matrix(155.23532,0,0,-155.23532,60.535454,230.30037)"
       spreadMethod="pad"
       id="linearGradient88">
      <stop
         style="stop-opacity:1;stop-color:#ffd000"
         offset="0"
         id="stop74" />
      <stop
         style="stop-opacity:1;stop-color:#ffd000"
         offset="0.0486486"
         id="stop76" />
      <stop
         style="stop-opacity:1;stop-color:#ffd000"
         offset="0.1767819"
         id="stop78" />
      <stop
         style="stop-opacity:1;stop-color:#a2248f"
         offset="0.513514"
         id="stop80" />
      <stop
         style="stop-opacity:1;stop-color:#1ba0de"
         offset="0.81691443"
         id="stop82" />
      <stop
         style="stop-opacity:1;stop-color:#1ba0de"
         offset="0.940541"
         id="stop84" />
      <stop
         style="stop-opacity:1;stop-color:#1ba0de"
         offset="1"
         id="stop86" />
    </linearGradient>
    <linearGradient
       id="a"
       gradientTransform="matrix(-1,0,0,1,129.7664,0)"
       gradientUnits="userSpaceOnUse"
       x1="91.828201"
       x2="-2.6709001"
       y1="89.952499"
       y2="-4.5467">
      <stop
         offset=".2345"
         stop-color="#e6e6e6"
         id="stop1" />
      <stop
         offset=".4344"
         stop-color="#e2e5e6"
         id="stop2" />
      <stop
         offset=".6252"
         stop-color="#d7e0e5"
         id="stop3" />
      <stop
         offset=".8124"
         stop-color="#c3d9e4"
         id="stop4" />
      <stop
         offset=".9964"
         stop-color="#a9cee3"
         id="stop5" />
      <stop
         offset="1"
         stop-color="#a8cee3"
         id="stop6" />
    </linearGradient>
    <radialGradient
       id="b"
       cx="32.270901"
       cy="32.094101"
       gradientTransform="matrix(-0.6958,-0.7182,-0.2981,0.2888,129.5183,46.002)"
       gradientUnits="userSpaceOnUse"
       r="36.437801">
      <stop
         offset=".299"
         stop-color="#5cbae6"
         stop-opacity="0"
         id="stop7" />
      <stop
         offset=".6786"
         stop-color="#5cbae6"
         id="stop8" />
      <stop
         offset=".9569"
         stop-color="#5cbae6"
         stop-opacity="0"
         id="stop9" />
    </radialGradient>
    <linearGradient
       id="c"
       gradientTransform="matrix(-0.7071,-0.7071,0.7071,-0.7071,68.9396,155.4568)"
       gradientUnits="userSpaceOnUse"
       x1="52.792999"
       x2="84.404999"
       y1="49.1646"
       y2="49.1646">
      <stop
         offset="0"
         stop-color="#4caf50"
         id="stop10" />
      <stop
         offset=".6933"
         stop-color="#a4e849"
         id="stop11" />
      <stop
         offset=".7603"
         stop-color="#9cde47"
         id="stop12" />
      <stop
         offset=".873"
         stop-color="#86c441"
         id="stop13" />
      <stop
         offset="1"
         stop-color="#689f38"
         id="stop14" />
    </linearGradient>
  </defs>
  <g
     inkscape:label="Layer 1"
     inkscape:groupmode="layer"
     id="layer1"
     transform="translate(-47.429471,-159.48933)">
    <text
       xml:space="preserve"
       style="font-size:10.5834px;line-height:1.25;font-family:sans-serif;text-align:end;text-anchor:end;white-space:pre;inline-size:0;stroke-width:0.264584"
       x="149.80362"
       y="189.85455"
       id="text1"><tspan
         id="tspan1"
         style="stroke-width:0.264584"
         x="149.80362"
         y="189.85455">🧪🧪</tspan></text>
    <g
       id="g2"
       transform="translate(-6.9773553,3.3555412)">
      <g
         id="surface61"
         transform="matrix(0.27948373,0,0,0.25804955,61.215287,163.02614)">
        <path
           fill="#000000"
           fill-opacity="1"
           fill-rule="nonzero"
           stroke="#eeeeee"
           stroke-width="2"
           d="m 67.871094,164.3125 c 0,7.53516 -0.847656,13.62109 -2.542969,18.25391 -1.695313,4.63671 -4.105469,8.23437 -7.234375,10.79687 -3.125,2.5625 -6.875,4.27734 -11.246094,5.14453 -4.371094,0.86328 -9.234375,1.29688 -14.582031,1.29688 -7.238281,0 -12.777344,-1.12891 -16.617187,-3.39063 -3.84375,-2.26172 -5.765626,-4.97265 -5.765626,-8.14062 0,-2.63672 1.070313,-4.85938 3.21875,-6.66797 2.148438,-1.8086 5.03125,-2.71094 8.648438,-2.71094 2.714844,0 4.882812,0.73438 6.5,2.20313 1.621094,1.46875 2.960938,2.92187 4.015625,4.35156 1.203125,1.58203 2.222656,2.63672 3.050781,3.16406 0.828125,0.52734 1.582032,0.79297 2.261719,0.79297 1.429687,0 2.523437,-0.84766 3.277344,-2.54297 0.753906,-1.69531 1.128906,-4.99219 1.128906,-9.89062 V 84.050781 L 67.871094,76.929688 V 164.3125 M 104.73828,79.414062 v 59.800778 c 0,1.66016 0.32031,3.22266 0.96094,4.69141 0.64062,1.46875 1.52734,2.73437 2.65625,3.78906 1.13281,1.05469 2.44922,1.90235 3.95703,2.54297 1.50781,0.64063 3.12891,0.96094 4.86328,0.96094 1.95703,0 4.1836,-1.09766 6.89453,-2.9961 4.29297,-3.00781 6.89453,-5.07421 6.89453,-7.51953 0,-0.58593 0,-61.269528 0,-61.269528 h 25.77344 V 164.3125 h -25.77344 v -7.91406 c -3.39062,2.86328 -7.00781,5.16015 -10.85156,6.89453 -3.84375,1.73437 -7.57422,2.60156 -11.1914,2.60156 -4.21875,0 -8.14063,-0.69922 -11.757818,-2.09375 -3.617187,-1.39453 -6.78125,-3.29687 -9.492187,-5.70703 -2.714844,-2.41016 -4.84375,-5.23828 -6.390625,-8.48047 -1.542969,-3.23828 -2.316406,-6.70703 -2.316406,-10.39844 V 79.414062 H 104.73828 M 192.88281,164.3125 H 167.22266 V 45.277344 L 192.88281,38.15625 V 164.3125 M 203.60156,84.050781 229.375,76.929688 V 164.3125 H 203.60156 V 84.050781 m 79.625,36.398439 c -2.48828,1.05859 -4.99609,2.28125 -7.51953,3.67578 -2.52344,1.39453 -4.82422,2.92188 -6.89453,4.57812 -2.07422,1.65625 -3.75,3.42969 -5.03125,5.3125 -1.28125,1.88282 -1.92188,3.84375 -1.92188,5.87891 0,1.58203 0.20704,3.10938 0.6211,4.57813 0.41406,1.46875 1,2.73046 1.7539,3.78515 0.75391,1.05469 1.58204,1.90235 2.48829,2.54297 0.90234,0.64063 1.88281,0.96094 2.9375,0.96094 2.10937,0 4.23828,-0.64063 6.38671,-1.92188 2.14844,-1.28125 4.53907,-2.89843 7.17969,-4.85937 v -24.53125 m 25.88281,43.86328 h -25.88281 v -6.78516 c -1.43359,1.20703 -2.82812,2.32032 -4.18359,3.33594 -1.35547,1.01563 -2.88281,1.90234 -4.57813,2.65625 -1.69531,0.75391 -3.59765,1.33594 -5.71093,1.75391 -2.10938,0.41406 -4.59766,0.62109 -7.45704,0.62109 -3.92187,0 -7.44531,-0.56641 -10.57031,-1.69531 -3.1289,-1.13281 -5.78515,-2.67578 -7.96875,-4.63672 -2.1875,-1.95703 -3.86328,-4.27734 -5.03125,-6.95313 -1.16797,-2.67187 -1.7539,-5.59375 -1.7539,-8.75781 0,-3.24219 0.62109,-6.17969 1.86718,-8.82031 1.24219,-2.63672 2.9375,-5.00781 5.08594,-7.12109 2.14844,-2.10938 4.65234,-3.99219 7.51563,-5.65235 2.86328,-1.65625 5.9375,-3.18359 9.21484,-4.57812 3.27734,-1.39453 6.6875,-2.67188 10.23047,-3.83985 3.53906,-1.16796 7.04687,-2.28125 10.51172,-3.33593 l 2.82812,-0.67969 v -8.36328 c 0,-5.425784 -1.03906,-9.269534 -3.10937,-11.531252 -2.07422,-2.261719 -4.84375,-3.390626 -8.3086,-3.390626 -4.07031,0 -6.89843,0.980469 -8.48047,2.9375 -1.58203,1.960938 -2.375,4.332032 -2.375,7.121094 0,1.582032 -0.16796,3.128906 -0.50781,4.636724 -0.33594,1.50781 -0.92187,2.82421 -1.75,3.95703 -0.82812,1.1289 -2.01562,2.03515 -3.5625,2.71093 -1.54297,0.67969 -3.48437,1.01954 -5.82031,1.01954 -3.61719,0 -6.55469,-1.03907 -8.81641,-3.10938 -2.26172,-2.07422 -3.39062,-4.69141 -3.39062,-7.859375 0,-2.9375 0.99609,-5.667969 2.99219,-8.191406 2,-2.527344 4.6914,-4.695313 8.08593,-6.5 3.39063,-1.8125 7.3086,-3.242188 11.75391,-4.296875 4.44531,-1.054688 9.15625,-1.582032 14.12891,-1.582032 6.10546,0 11.36328,0.546876 15.77343,1.636719 4.40625,1.09375 8.04297,2.65625 10.90625,4.691407 2.86328,2.035156 4.97266,4.484374 6.32813,7.347656 1.35937,2.863281 2.03515,6.070312 2.03515,9.609376 v 63.64453"
           id="path2" />
        <path
           fill="#cb3c33"
           fill-opacity="1"
           fill-rule="nonzero"
           stroke="#eeeeee"
           stroke-width="2"
           d="m 235.27344,55.089844 c 0,9.667968 -7.83594,17.5 -17.5,17.5 -9.66797,0 -17.5,-7.832032 -17.5,-17.5 0,-9.664063 7.83203,-17.5 17.5,-17.5 9.66406,0 17.5,7.835937 17.5,17.5"
           id="path4" />
        <path
           fill="#4063d8"
           fill-opacity="1"
           fill-rule="nonzero"
           stroke="#eeeeee"
           stroke-width="2"
           d="m 72.953125,55.089844 c 0,9.667968 -7.835937,17.5 -17.5,17.5 -9.664063,0 -17.5,-7.832032 -17.5,-17.5 0,-9.664063 7.835937,-17.5 17.5,-17.5 9.664063,0 17.5,7.835937 17.5,17.5"
           id="path6" />
        <path
           fill="#9558b2"
           fill-opacity="1"
           fill-rule="nonzero"
           stroke="#eeeeee"
           stroke-width="2"
           d="m 277.32031,55.089844 c 0,9.667968 -7.83594,17.5 -17.5,17.5 -9.66406,0 -17.5,-7.832032 -17.5,-17.5 0,-9.664063 7.83594,-17.5 17.5,-17.5 9.66406,0 17.5,7.835937 17.5,17.5"
           id="path8" />
        <path
           fill="#389826"
           fill-opacity="1"
           fill-rule="nonzero"
           stroke="#eeeeee"
           stroke-width="2"
           d="m 256.30078,18.671875 c 0,9.664063 -7.83594,17.5 -17.5,17.5 -9.66797,0 -17.5,-7.835937 -17.5,-17.5 0,-9.664063 7.83203,-17.5 17.5,-17.5 9.66406,0 17.5,7.835937 17.5,17.5"
           id="path10" />
      </g>
      <g
         id="g1"
         transform="matrix(0.3039884,0,0,0.3039884,153.20364,169.50369)">
        <g
           id="g24">
          <path
             d="m 13.25,90.94 74.1,-74.1 c 0.12,-0.12 0.21,-0.28 0.32,-0.46 0.79,-1.34 0.87,-2.63 0.74,-4.33 -0.21,-2.88 0.47,-4.44 1.86,-5.49 1.85,-1.38 8.24,-1.1 20.2,10.86 11.96,11.96 12.24,18.34 10.86,20.19 -1.04,1.4 -2.6,2.07 -5.49,1.86 -1.7,-0.12 -2.99,-0.05 -4.33,0.74 -0.18,0.11 -0.35,0.2 -0.46,0.32 l -74.1,74.1 c -10.18,10.18 -19.9,8.63 -26.07,2.46 -0.01,-0.01 -0.03,-0.03 -0.04,-0.04 -0.01,-0.01 -0.03,-0.03 -0.04,-0.04 -6.18,-6.17 -7.73,-15.89 2.45,-26.07 z"
             fill="url(#a)"
             id="path14"
             style="fill:url(#a)" />
          <path
             d="M 101.53,26.36 C 95.67,20.5 91.16,17.45 87.85,16.02 c 0.61,-1.22 0.67,-2.43 0.56,-3.97 -0.06,-0.88 -0.04,-1.63 0.06,-2.28 3.06,-0.09 8.98,2.17 18.23,11.43 9.25,9.25 11.51,15.17 11.42,18.23 -0.66,0.1 -1.4,0.12 -2.28,0.06 -1.55,-0.11 -2.76,-0.05 -3.97,0.56 -1.43,-3.32 -4.48,-7.83 -10.34,-13.69 z"
             fill="url(#b)"
             opacity="0.23"
             id="path15"
             style="fill:url(#b)" />
          <path
             d="M 61.57,44.24 14.8,91.03 c -9.88,9.87 -8.63,19.1 -2.89,24.84 5.74,5.73 14.95,7.01 24.85,-2.89 l 73.11,-73.11 z"
             fill="url(#c)"
             id="path16"
             style="fill:url(#c)" />
          <path
             d="M 14.19,99.35 89.03,24.51 c 0.63,-0.63 1.65,-0.63 2.28,0 0.63,0.63 0.63,1.65 0,2.28 l -74.84,74.84 c -0.63,0.63 -1.65,0.63 -2.28,0 -0.62,-0.63 -0.62,-1.65 0,-2.28 z"
             fill="#ffffff"
             opacity="0.55"
             id="path17" />
          <circle
             cx="86.839996"
             cy="51.580002"
             fill="#ffffff"
             opacity="0.69"
             r="4.54"
             id="circle17" />
          <circle
             cx="96.32"
             cy="31.059999"
             fill="#9ccc65"
             r="4.54"
             id="circle18" />
          <circle
             cx="74.080002"
             cy="57.009998"
             fill="#ffffff"
             opacity="0.69"
             r="2.2"
             id="circle19" />
          <circle
             cx="111.4"
             cy="10.52"
             fill="#9ccc65"
             r="4.4400001"
             id="circle20" />
          <circle
             cx="121.82"
             cy="12.89"
             fill="#9ccc65"
             r="2.0699999"
             id="circle21" />
          <g
             fill="#ffffff"
             id="g23">
            <circle
               cx="60.52"
               cy="70.949997"
               opacity="0.69"
               r="3.8099999"
               id="circle22" />
            <circle
               cx="66.440002"
               cy="60.619999"
               opacity="0.69"
               r="1.47"
               id="circle23" />
          </g>
        </g>
      </g>
    </g>
  </g>
</svg>
